<?xml version="1.0" encoding="utf-8"?>
<!-- Generator: Adobe Illustrator 24.3.0, SVG Export Plug-In . SVG Version: 6.00 Build 0)  -->
<svg version="1.1" id="Capa_1" xmlns="http://www.w3.org/2000/svg" xmlns:xlink="http://www.w3.org/1999/xlink" x="0px" y="0px"
	 viewBox="0 0 24 24" style="enable-background:new 0 0 24 24;" xml:space="preserve">
<style type="text/css">
	.st0{fill:#5B4C9A;}
</style>
<path class="st0" d="M23.3,21.4l-4.5-4.5c1.4-1.8,2.2-4.1,2.2-6.4c0-2.1-0.7-4.1-1.7-5.8c-1.2-1.7-2.8-3-4.7-3.8s-4.1-1.2-6.2-0.7
	C6.3,0.6,4.5,1.7,3,3.1S0.6,6.4,0.2,8.4c-0.5,2.1-0.3,4.2,0.5,6.2s2.1,3.6,3.8,4.7c1.8,1.1,3.8,1.7,5.9,1.7c2.4,0,4.6-0.8,6.4-2.2
	l4.5,4.5c0.1,0.1,0.3,0.3,0.4,0.3c0.1,0.1,0.4,0.1,0.5,0.1c0.1,0,0.4,0,0.5-0.1s0.3-0.1,0.4-0.3c0.1-0.1,0.3-0.3,0.3-0.4
	c0.1-0.1,0.1-0.4,0.1-0.5c0-0.1,0-0.4-0.1-0.5C23.5,21.7,23.4,21.5,23.3,21.4z M2.6,10.5c0-1.6,0.5-3,1.3-4.3C4.8,4.8,6,3.8,7.5,3.3
	c1.4-0.7,3-0.8,4.6-0.5s2.9,1.1,4.1,2.1c1.1,1.1,1.8,2.5,2.1,4.1c0.3,1.6,0.1,3.2-0.4,4.6c-0.7,1.4-1.6,2.6-2.9,3.6
	c-1.3,0.9-2.8,1.3-4.3,1.3c-2.1,0-4.1-0.8-5.5-2.4C3.4,14.6,2.6,12.6,2.6,10.5z"/>
</svg>
